<svg xmlns="http://www.w3.org/2000/svg" width="42" height="42" viewBox="0 0 42 42">
  <g id="Group_46142" data-name="Group 46142" transform="translate(-1709 -611)">
    <g id="Ellipse_1" data-name="Ellipse 1" transform="translate(1709 611)" fill="none" stroke="#c6cad9" stroke-width="2">
      <circle cx="21" cy="21" r="21" stroke="none"/>
      <circle cx="21" cy="21" r="20" fill="none"/>
    </g>
    <path id="Icon_awesome-linkedin-in" data-name="Icon awesome-linkedin-in" d="M3.534,15.789H.261V5.248H3.534ZM1.9,3.81A1.9,1.9,0,1,1,3.791,1.9,1.912,1.912,0,0,1,1.9,3.81ZM15.785,15.789H12.519V10.658c0-1.223-.025-2.791-1.7-2.791-1.7,0-1.963,1.329-1.963,2.7v5.219H5.584V5.248H8.724V6.686H8.77a3.439,3.439,0,0,1,3.1-1.7c3.313,0,3.922,2.181,3.922,5.015v5.79Z" transform="translate(1722 623.999)" fill="#c6cad9"/>
  </g>
</svg>
