<svg xmlns="http://www.w3.org/2000/svg" width="41" height="42" viewBox="0 0 41 42">
  <g id="Group_46143" data-name="Group 46143" transform="translate(-1768 -611)">
    <g id="Ellipse_2" data-name="Ellipse 2" transform="translate(1768 611)" fill="none" stroke="#c6cad9" stroke-width="2">
      <ellipse cx="20.5" cy="21" rx="20.5" ry="21" stroke="none"/>
      <ellipse cx="20.5" cy="21" rx="19.5" ry="20" fill="none"/>
    </g>
    <path id="Icon_awesome-twitter" data-name="Icon awesome-twitter" d="M15.975,6.985c.011.158.011.316.011.475A10.312,10.312,0,0,1,5.6,17.842,10.312,10.312,0,0,1,0,16.2a7.549,7.549,0,0,0,.881.045,7.308,7.308,0,0,0,4.53-1.559A3.656,3.656,0,0,1,2,12.159a4.6,4.6,0,0,0,.689.056,3.86,3.86,0,0,0,.96-.124A3.65,3.65,0,0,1,.723,8.51V8.465a3.675,3.675,0,0,0,1.649.463,3.655,3.655,0,0,1-1.13-4.881A10.373,10.373,0,0,0,8.767,7.866a4.119,4.119,0,0,1-.09-.836,3.653,3.653,0,0,1,6.316-2.5,7.185,7.185,0,0,0,2.316-.881,3.639,3.639,0,0,1-1.6,2.011,7.316,7.316,0,0,0,2.1-.565,7.844,7.844,0,0,1-1.83,1.887Z" transform="translate(1780 621.619)" fill="#c6cad9"/>
  </g>
</svg>
